<svg width="1485" height="528" viewBox="0 0 1485 528" fill="none" xmlns="http://www.w3.org/2000/svg">
<path d="M674.619 17.5552C680.281 3.5254 696.244 -3.25837 710.273 2.40283C724.303 8.06442 731.087 24.0274 725.426 38.0571C696.709 109.223 651.786 140.345 615.07 161.631C595.988 172.695 583.417 178.971 573.258 187.074C564.717 193.886 560.791 199.896 559.36 208.371C556.709 224.077 563.176 241.328 578.624 257.664C579.75 258.855 581.741 258.2 582.053 256.591C594.412 192.947 681.967 143.619 788.14 143.619C843.421 143.619 893.655 156.993 930.856 178.797C932.304 179.646 934.143 178.469 934.031 176.794C933.924 175.191 933.869 173.573 933.869 171.942C933.869 154.2 940.329 137.967 951.025 125.467C951.684 124.697 951.682 123.55 951.035 122.77C933.14 101.179 940.591 80.2229 948.079 70.6981C948.623 70.0068 949.57 69.8035 950.361 70.187C965.272 77.4142 973.781 91.2492 978.204 103.483C978.595 104.567 979.8 105.126 980.882 104.731C988.527 101.943 996.78 100.42 1005.39 100.42C1015.98 100.42 1026.04 102.723 1035.08 106.854C1036.21 107.371 1037.55 106.788 1037.94 105.607C1042.13 92.886 1050.74 77.8362 1066.52 70.1872C1067.31 69.8037 1068.26 70.0072 1068.8 70.6985C1076.69 80.7358 1084.54 103.466 1062.73 126.257C1062.03 126.992 1061.95 128.146 1062.56 128.959C1071.57 140.925 1076.91 155.809 1076.91 171.942C1076.91 202.813 1057.35 229.114 1029.95 239.132C1029.51 239.294 1029.13 239.602 1028.89 240.007L976.885 328.366C976.546 328.942 976.517 329.65 976.809 330.252L1070.58 523.759C1071.22 525.087 1070.25 526.631 1068.78 526.631H998.73C997.963 526.631 997.264 526.193 996.93 525.503L931.854 391.206C931.125 389.702 928.983 389.702 928.254 391.206L863.179 525.503C862.845 526.193 862.146 526.631 861.379 526.631H791.332C789.856 526.631 788.889 525.087 789.532 523.759L850.509 397.919C851.23 396.431 849.936 394.756 848.311 395.06C829.266 398.624 809.064 400.54 788.14 400.54C763.835 400.54 740.505 397.954 718.83 393.204C717.187 392.843 715.835 394.538 716.569 396.052L778.452 523.759C779.096 525.087 778.128 526.631 776.652 526.631H706.605C705.838 526.631 705.139 526.193 704.805 525.503L639.73 391.207C639.001 389.703 636.859 389.703 636.13 391.207L571.054 525.503C570.72 526.193 570.021 526.631 569.255 526.631H499.207C497.731 526.631 496.764 525.087 497.407 523.759L588.888 334.969C589.36 333.996 588.973 332.826 588.019 332.317C577.135 326.499 566.742 319.716 557.281 312.185C525.525 286.907 497.256 247.117 505.338 199.25C509.595 174.039 523.098 157.001 539.095 144.242C553.473 132.773 572.549 122.954 587.59 114.234C619.119 95.9537 652.345 72.7573 674.619 17.5552Z" fill="#A3C67C"/>
<path d="M674.619 17.5552L674.243 17.4036V17.4036L674.619 17.5552ZM710.273 2.40283L710.425 2.02719L710.425 2.02719L710.273 2.40283ZM725.426 38.0571L725.801 38.2087V38.2087L725.426 38.0571ZM615.07 161.631L615.273 161.982V161.982L615.07 161.631ZM573.258 187.074L573.005 186.757V186.757L573.258 187.074ZM559.36 208.371L558.961 208.303H558.961L559.36 208.371ZM788.14 143.619V143.214V143.214V143.619ZM933.869 171.942H933.464V171.942H933.869ZM1005.39 100.42V100.015V100.015V100.42ZM1076.91 171.942H1077.32V171.942H1076.91ZM788.14 400.54V400.945V400.945V400.54ZM557.281 312.185L557.029 312.502V312.502L557.281 312.185ZM505.338 199.25L504.938 199.182H504.938L505.338 199.25ZM539.095 144.242L538.842 143.925V143.925L539.095 144.242ZM587.59 114.234L587.793 114.584V114.584L587.59 114.234ZM497.407 523.759L497.772 523.936L497.407 523.759ZM636.13 391.207L635.765 391.03L636.13 391.207ZM778.452 523.759L778.087 523.936L778.452 523.759ZM716.569 396.052L716.204 396.229L716.569 396.052ZM850.509 397.919L850.874 398.095L850.509 397.919ZM848.311 395.06L848.385 395.458L848.311 395.06ZM789.532 523.759L789.168 523.583L789.532 523.759ZM863.179 525.503L862.815 525.327L863.179 525.503ZM931.854 391.206L931.489 391.383V391.383L931.854 391.206ZM928.254 391.206L927.889 391.029L928.254 391.206ZM996.93 525.503L997.295 525.327L996.93 525.503ZM1070.58 523.759L1070.21 523.936L1070.58 523.759ZM1029.95 239.132L1030.09 239.513L1029.95 239.132ZM1028.89 240.007L1029.24 240.213L1028.89 240.007ZM1062.73 126.257L1063.02 126.537L1062.73 126.257ZM1062.56 128.959L1062.23 129.203L1062.56 128.959ZM1066.52 70.1872L1066.34 69.8227L1066.52 70.1872ZM1068.8 70.6985L1068.48 70.9488L1068.8 70.6985ZM1035.08 106.854L1034.91 107.223L1035.08 106.854ZM1037.94 105.607L1038.33 105.733L1037.94 105.607ZM978.204 103.483L978.585 103.346L978.204 103.483ZM980.882 104.731L980.743 104.351L980.882 104.731ZM588.888 334.969L588.524 334.792L588.888 334.969ZM588.019 332.316L587.828 332.674L588.019 332.316ZM951.025 125.467L951.333 125.731L951.025 125.467ZM951.035 122.77L950.724 123.028L951.035 122.77ZM976.885 328.366L977.234 328.571L976.885 328.366ZM976.809 330.252L977.173 330.076L976.809 330.252ZM571.054 525.503L570.69 525.327L571.054 525.503ZM930.856 178.797L931.06 178.448L930.856 178.797ZM934.031 176.794L934.435 176.767L934.031 176.794ZM948.079 70.6981L947.761 70.4478L948.079 70.6981ZM950.361 70.187L950.538 69.8225L950.361 70.187ZM704.805 525.503L705.17 525.327L704.805 525.503ZM578.624 257.664L578.918 257.386L578.624 257.664ZM582.053 256.591L581.656 256.514L582.053 256.591ZM674.619 17.5552L674.995 17.7068C680.572 3.88445 696.299 -2.79902 710.122 2.77848L710.273 2.40283L710.425 2.02719C696.188 -3.71772 679.989 3.16635 674.243 17.4036L674.619 17.5552ZM710.273 2.40283L710.122 2.77847C723.944 8.35634 730.628 24.0832 725.05 37.9056L725.426 38.0571L725.801 38.2087C731.546 23.9715 724.662 7.7725 710.425 2.02719L710.273 2.40283ZM725.426 38.0571L725.05 37.9056C696.381 108.954 651.544 140.016 614.867 161.281L615.07 161.631L615.273 161.982C652.027 140.673 697.037 109.493 725.801 38.2087L725.426 38.0571ZM615.07 161.631L614.867 161.281C595.818 172.325 583.196 178.629 573.005 186.757L573.258 187.074L573.51 187.39C583.638 179.312 596.159 173.064 615.273 161.982L615.07 161.631ZM573.258 187.074L573.005 186.757C564.409 193.614 560.413 199.706 558.961 208.303L559.36 208.371L559.76 208.438C561.17 200.086 565.026 194.158 573.51 187.39L573.258 187.074ZM559.36 208.371L558.961 208.303C556.281 224.175 562.827 241.549 578.33 257.942L578.624 257.664L578.918 257.386C563.524 241.108 557.136 223.978 559.76 208.438L559.36 208.371ZM582.053 256.591L582.451 256.668C588.599 225.006 613.468 196.847 650.112 176.593C686.75 156.343 735.113 144.024 788.14 144.024V143.619V143.214C734.994 143.214 686.493 155.559 649.72 175.884C612.955 196.205 587.866 224.532 581.656 256.514L582.053 256.591ZM788.14 143.619V144.024C843.36 144.024 893.521 157.384 930.651 179.147L930.856 178.797L931.06 178.448C893.789 156.602 843.483 143.214 788.14 143.214V143.619ZM934.031 176.794L934.435 176.767C934.328 175.172 934.274 173.564 934.274 171.942H933.869H933.464C933.464 173.582 933.519 175.209 933.627 176.821L934.031 176.794ZM933.869 171.942H934.274C934.274 154.3 940.697 138.16 951.333 125.731L951.025 125.467L950.718 125.204C939.961 137.775 933.464 154.1 933.464 171.942H933.869ZM951.035 122.77L951.347 122.511C933.605 101.105 940.994 80.3657 948.398 70.9485L948.079 70.6981L947.761 70.4478C940.188 80.0801 932.675 101.253 950.724 123.028L951.035 122.77ZM950.361 70.187L950.185 70.5515C964.964 77.7151 973.42 91.4406 977.823 103.621L978.204 103.483L978.585 103.346C974.143 91.0578 965.58 77.1133 950.538 69.8225L950.361 70.187ZM980.882 104.731L981.021 105.112C988.622 102.339 996.828 100.826 1005.39 100.825V100.42V100.015C996.732 100.015 988.432 101.546 980.743 104.351L980.882 104.731ZM1005.39 100.42V100.825C1015.92 100.825 1025.92 103.115 1034.91 107.223L1035.08 106.854L1035.25 106.486C1026.15 102.33 1016.04 100.015 1005.39 100.015V100.42ZM1037.94 105.607L1038.33 105.733C1042.49 93.0657 1051.05 78.1336 1066.69 70.5518L1066.52 70.1872L1066.34 69.8227C1050.42 77.5388 1041.76 92.7063 1037.56 105.48L1037.94 105.607ZM1068.8 70.6985L1068.48 70.9488C1072.38 75.9096 1076.28 84.0189 1076.5 93.7042C1076.72 103.376 1073.27 114.654 1062.44 125.976L1062.73 126.257L1063.02 126.537C1074 115.069 1077.53 103.586 1077.31 93.6858C1077.08 83.799 1073.11 75.5246 1069.12 70.4481L1068.8 70.6985ZM1062.56 128.959L1062.23 129.203C1071.19 141.101 1076.51 155.9 1076.51 171.942H1076.91H1077.32C1077.32 155.718 1071.94 140.749 1062.88 128.715L1062.56 128.959ZM1076.91 171.942H1076.51C1076.51 202.637 1057.06 228.79 1029.81 238.752L1029.95 239.132L1030.09 239.513C1057.65 229.438 1077.32 202.988 1077.32 171.942H1076.91ZM1028.89 240.007L1028.55 239.802L976.536 328.16L976.885 328.366L977.234 328.571L1029.24 240.213L1028.89 240.007ZM976.809 330.252L976.444 330.429L1070.21 523.936L1070.58 523.759L1070.94 523.583L977.173 330.076L976.809 330.252ZM1068.78 526.631V526.226H998.73V526.631V527.036H1068.78V526.631ZM996.93 525.503L997.295 525.327L932.218 391.029L931.854 391.206L931.489 391.383L996.565 525.68L996.93 525.503ZM928.254 391.206L927.889 391.029L862.815 525.327L863.179 525.503L863.544 525.68L928.618 391.383L928.254 391.206ZM861.379 526.631V526.226H791.332V526.631V527.036H861.379V526.631ZM789.532 523.759L789.897 523.936L850.874 398.095L850.509 397.919L850.145 397.742L789.168 523.583L789.532 523.759ZM848.311 395.06L848.236 394.662C829.216 398.221 809.04 400.134 788.14 400.134V400.54V400.945C809.089 400.945 829.315 399.026 848.385 395.458L848.311 395.06ZM788.14 400.54V400.134C763.863 400.134 740.563 397.552 718.917 392.808L718.83 393.204L718.744 393.599C740.448 398.356 763.806 400.945 788.14 400.945V400.54ZM716.569 396.052L716.204 396.229L778.087 523.936L778.452 523.759L778.817 523.583L716.933 395.876L716.569 396.052ZM776.652 526.631V526.226H706.605V526.631V527.036H776.652V526.631ZM704.805 525.503L705.17 525.327L640.094 391.03L639.73 391.207L639.365 391.384L704.441 525.68L704.805 525.503ZM636.13 391.207L635.765 391.03L570.69 525.327L571.054 525.503L571.419 525.68L636.494 391.384L636.13 391.207ZM569.255 526.631V526.226H499.207V526.631V527.036H569.255V526.631ZM497.407 523.759L497.772 523.936L589.253 335.146L588.888 334.969L588.524 334.792L497.043 523.583L497.407 523.759ZM588.019 332.316L588.21 331.959C577.347 326.152 566.975 319.383 557.534 311.868L557.281 312.185L557.029 312.502C566.51 320.049 576.924 326.845 587.828 332.674L588.019 332.316ZM557.281 312.185L557.534 311.868C525.829 286.631 497.691 246.973 505.737 199.317L505.338 199.25L504.938 199.182C496.821 247.26 525.221 287.182 557.029 312.502L557.281 312.185ZM505.338 199.25L505.737 199.317C509.973 174.23 523.405 157.274 539.347 144.558L539.095 144.242L538.842 143.925C522.79 156.728 509.216 173.848 504.938 199.182L505.338 199.25ZM539.095 144.242L539.347 144.558C553.695 133.115 572.724 123.321 587.793 114.584L587.59 114.234L587.387 113.883C572.374 122.587 553.252 132.432 538.842 143.925L539.095 144.242ZM587.59 114.234L587.793 114.584C619.361 96.2818 652.673 73.0268 674.995 17.7068L674.619 17.5552L674.243 17.4036C652.017 72.4877 618.878 95.6256 587.387 113.883L587.59 114.234ZM499.207 526.631V526.226C498.03 526.226 497.259 524.995 497.772 523.936L497.407 523.759L497.043 523.583C496.269 525.18 497.432 527.036 499.207 527.036V526.631ZM639.73 391.207L640.094 391.03C639.218 389.222 636.642 389.222 635.765 391.03L636.13 391.207L636.494 391.384C637.076 390.184 638.784 390.184 639.365 391.384L639.73 391.207ZM778.452 523.759L778.087 523.936C778.601 524.995 777.829 526.226 776.652 526.226V526.631V527.036C778.427 527.036 779.59 525.18 778.817 523.583L778.452 523.759ZM718.83 393.204L718.917 392.808C716.948 392.376 715.32 394.405 716.204 396.229L716.569 396.052L716.933 395.876C716.349 394.67 717.425 393.31 718.744 393.599L718.83 393.204ZM850.509 397.919L850.874 398.095C851.742 396.304 850.184 394.297 848.236 394.662L848.311 395.06L848.385 395.458C849.689 395.214 850.719 396.558 850.145 397.742L850.509 397.919ZM791.332 526.631V526.226C790.155 526.226 789.384 524.995 789.897 523.936L789.532 523.759L789.168 523.583C788.394 525.18 789.557 527.036 791.332 527.036V526.631ZM863.179 525.503L862.815 525.327C862.548 525.877 861.991 526.226 861.379 526.226V526.631V527.036C862.301 527.036 863.142 526.51 863.544 525.68L863.179 525.503ZM931.854 391.206L932.218 391.029C931.342 389.221 928.766 389.221 927.889 391.029L928.254 391.206L928.618 391.383C929.2 390.183 930.908 390.183 931.489 391.383L931.854 391.206ZM998.73 526.631V526.226C998.119 526.226 997.561 525.877 997.295 525.327L996.93 525.503L996.565 525.68C996.967 526.51 997.808 527.036 998.73 527.036V526.631ZM1070.58 523.759L1070.21 523.936C1070.73 524.995 1069.95 526.226 1068.78 526.226V526.631V527.036C1070.55 527.036 1071.72 525.18 1070.94 523.583L1070.58 523.759ZM1029.95 239.132L1029.81 238.752C1029.28 238.945 1028.83 239.313 1028.55 239.802L1028.89 240.007L1029.24 240.213C1029.43 239.89 1029.73 239.643 1030.09 239.513L1029.95 239.132ZM1062.73 126.257L1062.44 125.976C1061.6 126.853 1061.5 128.228 1062.23 129.203L1062.56 128.959L1062.88 128.715C1062.39 128.064 1062.45 127.132 1063.02 126.537L1062.73 126.257ZM1066.52 70.1872L1066.69 70.5518C1067.32 70.2486 1068.06 70.4121 1068.48 70.9488L1068.8 70.6985L1069.12 70.4481C1068.45 69.6023 1067.3 69.3588 1066.34 69.8227L1066.52 70.1872ZM1035.08 106.854L1034.91 107.223C1036.26 107.839 1037.86 107.146 1038.33 105.733L1037.94 105.607L1037.56 105.48C1037.24 106.431 1036.16 106.903 1035.25 106.486L1035.08 106.854ZM978.204 103.483L977.823 103.621C978.291 104.916 979.729 105.583 981.021 105.112L980.882 104.731L980.743 104.351C979.87 104.669 978.9 104.217 978.585 103.346L978.204 103.483ZM588.888 334.969L589.253 335.146C589.82 333.975 589.353 332.57 588.21 331.959L588.019 332.316L587.828 332.674C588.592 333.082 588.899 334.017 588.524 334.792L588.888 334.969ZM951.025 125.467L951.333 125.731C952.123 124.808 952.117 123.44 951.347 122.511L951.035 122.77L950.724 123.028C951.247 123.66 951.246 124.587 950.718 125.204L951.025 125.467ZM976.885 328.366L976.536 328.16C976.128 328.854 976.093 329.705 976.444 330.429L976.809 330.252L977.173 330.076C976.941 329.596 976.964 329.031 977.234 328.571L976.885 328.366ZM571.054 525.503L570.69 525.327C570.423 525.877 569.866 526.226 569.255 526.226V526.631V527.036C570.176 527.036 571.017 526.51 571.419 525.68L571.054 525.503ZM930.856 178.797L930.651 179.147C932.391 180.167 934.568 178.753 934.435 176.767L934.031 176.794L933.627 176.821C933.718 178.184 932.216 179.125 931.06 178.448L930.856 178.797ZM948.079 70.6981L948.398 70.9485C948.82 70.4117 949.559 70.2483 950.185 70.5515L950.361 70.187L950.538 69.8225C949.581 69.3586 948.426 69.6019 947.761 70.4478L948.079 70.6981ZM706.605 526.631V526.226C705.994 526.226 705.436 525.877 705.17 525.327L704.805 525.503L704.441 525.68C704.842 526.51 705.683 527.036 706.605 527.036V526.631ZM578.624 257.664L578.33 257.942C579.703 259.395 582.082 258.57 582.451 256.668L582.053 256.591L581.656 256.514C581.4 257.829 579.797 258.315 578.918 257.386L578.624 257.664Z" fill="black"/>
<path d="M1485 526.532H0" stroke="black"/>
<path fill-rule="evenodd" clip-rule="evenodd" d="M1012.73 143.04L1012.92 143.047C1014.8 143.192 1015.7 145.47 1014.43 146.861L1014.29 146.997L1011.67 149.447C1010.79 150.269 1009.43 150.269 1008.55 149.447L1005.92 146.997C1004.46 145.624 1005.35 143.197 1007.29 143.047L1007.49 143.04H1012.73ZM1007.49 143.85C1006.15 143.85 1005.5 145.49 1006.48 146.405L1009.1 148.855C1009.67 149.386 1010.55 149.386 1011.12 148.855L1013.74 146.405C1014.72 145.49 1014.07 143.85 1012.73 143.85H1007.49Z" fill="black"/>
<path fill-rule="evenodd" clip-rule="evenodd" d="M989.316 123.296C992.77 123.217 995.766 124.289 998.295 125.994C1003.34 129.392 1006.54 135.308 1007.96 139.706L1008.1 140.162L1007.63 140.232C1001.14 141.185 994.777 139.338 989.484 136.671C984.19 134.002 979.927 130.494 977.612 128.065L977.278 127.714L977.682 127.447C981.985 124.605 985.863 123.376 989.316 123.296ZM989.335 124.106C986.174 124.179 982.578 125.269 978.54 127.855C980.862 130.203 984.895 133.45 989.849 135.948C994.922 138.505 1000.93 140.257 1007.03 139.494C1005.58 135.252 1002.51 129.81 997.843 126.666C995.433 125.041 992.6 124.031 989.335 124.106Z" fill="black"/>
<path fill-rule="evenodd" clip-rule="evenodd" d="M1033.61 123.296C1037.07 123.376 1040.94 124.605 1045.25 127.447L1045.65 127.714L1045.32 128.065C1043 130.494 1038.74 134.002 1033.44 136.671C1028.15 139.339 1021.79 141.185 1015.3 140.232L1014.83 140.162L1014.97 139.706C1016.39 135.308 1019.59 129.392 1024.63 125.994C1027.16 124.289 1030.16 123.217 1033.61 123.296ZM1033.59 124.106C1030.33 124.031 1027.5 125.041 1025.09 126.666C1020.42 129.81 1017.35 135.252 1015.9 139.494C1022 140.257 1028.01 138.505 1033.08 135.948C1038.03 133.45 1042.07 130.203 1044.39 127.855C1040.35 125.269 1036.76 124.179 1033.59 124.106Z" fill="black"/>
<path fill-rule="evenodd" clip-rule="evenodd" d="M1028.92 140.561C1062.43 130.246 1101.23 130.944 1130.64 150.9C1132.15 151.931 1133.59 152.981 1135.03 154.099C1135.21 154.237 1135.24 154.492 1135.11 154.671C1134.97 154.851 1134.72 154.888 1134.54 154.756C1133.07 153.696 1131.61 152.705 1130.09 151.735C1100.59 133.108 1062.88 133.717 1030.9 144.569C1057.6 139.041 1088.71 140.996 1109.12 160.508L1109.96 161.322C1110.7 162.044 1111.4 162.775 1112.11 163.539C1112.26 163.704 1112.25 163.961 1112.08 164.116C1111.92 164.271 1111.66 164.266 1111.51 164.107C1110.51 163.111 1109.51 162.179 1108.45 161.249L1108.45 161.248C1087.57 142.944 1057.45 142.436 1031.74 148.872C1031.63 148.898 1031.65 149.053 1031.76 149.055H1031.77C1064.44 149.82 1098.65 163.127 1116.86 190.863L1116.86 190.864L1116.86 190.865C1117.79 192.281 1118.66 193.683 1119.5 195.15C1119.61 195.345 1119.54 195.594 1119.35 195.708C1119.16 195.822 1118.91 195.761 1118.79 195.57C1117.91 194.148 1117 192.794 1116.03 191.43L1116.03 191.429L1116.03 191.428C1097.12 164.745 1063.29 153.13 1031.79 153.485C1030.07 153.528 1028.26 153.625 1026.57 153.782C1026.34 153.803 1026.14 153.633 1026.13 153.408C1026.08 152.774 1026.03 152.141 1025.99 151.507C1025.96 151.17 1025.94 150.832 1025.91 150.495L1025.91 150.494L1025.91 150.493C1025.53 149.134 1025.07 147.826 1024.57 146.617C1024.32 146.031 1024.08 145.444 1023.83 144.857C1023.59 144.271 1023.35 143.684 1023.1 143.097C1023.02 142.888 1023.12 142.649 1023.33 142.565C1025.13 141.848 1027.07 141.161 1028.91 140.564L1028.92 140.561ZM1031.75 149.864C1030.54 149.85 1029.29 149.863 1028.05 149.904C1027.94 149.907 1027.83 149.924 1027.73 149.955C1027.13 150.128 1026.74 150.698 1026.79 151.32C1026.79 151.362 1026.79 151.405 1026.79 151.447C1026.86 152.267 1027.57 152.879 1028.4 152.825C1029.52 152.752 1030.66 152.703 1031.77 152.676H1031.78C1057.74 152.382 1085.36 160.175 1105 177.856C1086 159.503 1058.4 150.489 1031.75 149.864ZM1096.64 152.265C1077.03 141.164 1051.88 140.84 1029.8 145.63C1028.9 145.825 1028 146.033 1027.11 146.249C1026.31 146.441 1025.84 147.256 1026.06 148.043C1026.25 148.698 1026.86 149.137 1027.54 149.111C1027.55 149.11 1027.56 149.11 1027.58 149.11C1027.7 149.105 1027.82 149.086 1027.93 149.053C1028.77 148.815 1029.61 148.584 1030.45 148.364L1030.45 148.363C1051.85 142.82 1076.59 141.966 1096.64 152.265ZM1113.62 142.696C1087.35 131.89 1056.52 132.914 1029.16 141.334C1027.93 141.734 1026.65 142.174 1025.4 142.637C1024.64 142.921 1024.27 143.789 1024.58 144.546C1024.75 144.947 1024.92 145.348 1025.08 145.75C1025.12 145.837 1025.21 145.885 1025.31 145.862C1025.32 145.859 1025.32 145.856 1025.33 145.853C1026.87 145.197 1028.5 144.562 1030.07 143.994L1030.08 143.992C1056.52 134.904 1087 132.753 1113.62 142.696Z" fill="black"/>
<path fill-rule="evenodd" clip-rule="evenodd" d="M995.845 140.561C962.333 130.246 923.527 130.944 894.125 150.9C892.613 151.931 891.17 152.981 889.729 154.099C889.551 154.237 889.518 154.492 889.654 154.671C889.789 154.851 890.044 154.888 890.226 154.756C891.688 153.696 893.148 152.705 894.674 151.735C924.168 133.108 961.877 133.717 993.865 144.569C967.159 139.041 936.055 140.996 915.64 160.508L914.798 161.322C914.065 162.044 913.359 162.775 912.656 163.539C912.504 163.704 912.514 163.961 912.677 164.116C912.84 164.271 913.097 164.266 913.256 164.107C914.252 163.111 915.249 162.179 916.313 161.249L916.314 161.248C937.192 142.944 967.31 142.436 993.022 148.872C993.129 148.898 993.108 149.053 992.998 149.055H992.993C960.319 149.82 926.115 163.127 907.905 190.863L907.905 190.864L907.904 190.865C906.969 192.281 906.105 193.683 905.262 195.15C905.15 195.345 905.217 195.594 905.41 195.708C905.604 195.822 905.853 195.761 905.972 195.57C906.855 194.148 907.758 192.794 908.729 191.43L908.73 191.429L908.731 191.428C927.644 164.745 961.475 153.13 992.969 153.485C994.696 153.528 996.505 153.625 998.193 153.782C998.419 153.803 998.618 153.633 998.634 153.408C998.681 152.774 998.728 152.141 998.774 151.507C998.799 151.17 998.825 150.832 998.85 150.495L998.851 150.494L998.852 150.493C999.233 149.134 999.692 147.826 1000.19 146.617C1000.44 146.031 1000.68 145.444 1000.93 144.857C1001.17 144.271 1001.42 143.684 1001.66 143.097C1001.75 142.888 1001.64 142.649 1001.43 142.565C999.628 141.848 997.695 141.161 995.85 140.564L995.845 140.561ZM993.007 149.864C994.218 149.85 995.473 149.863 996.711 149.904C996.82 149.907 996.929 149.924 997.033 149.955C997.632 150.128 998.022 150.698 997.976 151.32C997.973 151.362 997.97 151.405 997.967 151.447C997.906 152.267 997.187 152.879 996.366 152.825C995.241 152.752 994.098 152.703 992.989 152.676H992.982C967.022 152.382 939.401 160.175 919.758 177.856C938.763 159.503 966.357 150.489 993.007 149.864ZM928.122 152.265C947.736 141.164 972.886 140.84 994.965 145.63C995.86 145.825 996.761 146.033 997.654 146.249C998.448 146.441 998.918 147.256 998.698 148.043C998.514 148.698 997.9 149.137 997.22 149.111C997.209 149.11 997.198 149.11 997.186 149.11C997.065 149.105 996.945 149.086 996.828 149.053C995.993 148.815 995.149 148.584 994.31 148.364L994.309 148.363C972.916 142.82 948.176 141.966 928.122 152.265ZM911.14 142.696C937.415 131.89 968.244 132.914 995.601 141.334C996.836 141.734 998.11 142.174 999.357 142.637C1000.13 142.921 1000.49 143.789 1000.18 144.546C1000.01 144.947 999.845 145.348 999.679 145.75C999.642 145.837 999.547 145.885 999.456 145.862C999.446 145.859 999.437 145.856 999.428 145.853C997.892 145.197 996.261 144.562 994.69 143.994L994.684 143.992C968.24 134.904 937.762 132.753 911.14 142.696Z" fill="black"/>
<path d="M1006.48 146.405C1005.5 145.49 1006.15 143.85 1007.49 143.85H1012.73C1014.07 143.85 1014.72 145.49 1013.74 146.405L1011.12 148.855C1010.55 149.386 1009.67 149.386 1009.1 148.855L1006.48 146.405Z" fill="white"/>
<path d="M1025.09 126.666C1027.5 125.041 1030.33 124.031 1033.59 124.106C1036.76 124.179 1040.35 125.269 1044.39 127.855C1042.07 130.203 1038.03 133.45 1033.08 135.948C1028.01 138.505 1022 140.257 1015.9 139.494C1017.35 135.252 1020.42 129.81 1025.09 126.666Z" fill="white"/>
<path d="M978.54 127.855C982.578 125.269 986.174 124.179 989.335 124.106C992.6 124.031 995.433 125.041 997.843 126.666C1002.51 129.81 1005.58 135.252 1007.03 139.494C1000.93 140.257 994.922 138.505 989.849 135.948C984.895 133.45 980.862 130.203 978.54 127.855Z" fill="white"/>
<path d="M776.143 148.586C774.783 140.424 776.143 132.479 781.286 126.3" stroke="black" stroke-linecap="round"/>
<path d="M736.714 246.872C727.552 248.017 719.86 251.71 714.429 259.443" stroke="black" stroke-linecap="round"/>
<path d="M842.429 278.3C852.75 278.3 859.572 288.479 859.572 296.585" stroke="black" stroke-linecap="round"/>
<path d="M912.143 249.728C919.75 253.979 926.5 253.229 930.428 248.014" stroke="black" stroke-linecap="round"/>
<path d="M745.857 293.729C745.857 300.729 742.25 306.229 735.571 308.586" stroke="black" stroke-linecap="round"/>
<path d="M674.429 320.586C670 328.979 659.092 334.346 649.286 335.443" stroke="black" stroke-linecap="round"/>
<path d="M520.714 228.014C514 232.229 505.105 231.833 499 225.729" stroke="black" stroke-linecap="round"/>
<path d="M669.286 85.1572C672.278 85.1572 675.124 83.9619 677.857 82.8716" stroke="black" stroke-linecap="round"/>
<path d="M557.857 180.585C552.836 179.33 550.748 178.192 547.571 174.3" stroke="black" stroke-linecap="round"/>
<path d="M590.429 417.729C585.125 420.479 576.875 421.354 572.715 416.586" stroke="black" stroke-linecap="round"/>
<path d="M573.857 443.443C579.25 444.604 580.375 446.604 581.857 450.871" stroke="black" stroke-linecap="round"/>
<path d="M696.143 414.3C691.875 417.104 687.375 417.354 681.857 416.014" stroke="black" stroke-linecap="round"/>
<path d="M872.143 404.586C872.802 409.2 873.293 413.345 876.143 417.157" stroke="black" stroke-linecap="round"/>
<path d="M996.715 440.586C1000.89 440.586 1005.21 441.521 1009.29 442.3" stroke="black" stroke-linecap="round"/>
<path d="M1005.86 461.729C1005.86 470.729 999.101 483.396 990.429 486.871" stroke="black" stroke-linecap="round"/>
<path d="M987 222.871C995.5 226.479 1003.25 224.729 1007 219.443" stroke="black" stroke-linecap="round"/>
<path d="M792.144 186.3C786.75 188.229 779.624 185.314 776.715 177.729" stroke="black" stroke-linecap="round"/>
<path d="M693.286 178.872C693.286 186.729 690.5 195.229 684.826 198.849" stroke="black" stroke-linecap="round"/>
<path d="M826.429 334.3C834.25 345.729 846.25 352.229 857.286 350.871" stroke="black" stroke-linecap="round"/>
<path d="M897.857 344.014C899.75 352.729 896.5 358.729 887 361.157" stroke="black" stroke-linecap="round"/>
<path d="M1056.14 516.428C1053.31 520.428 1045.74 526.028 1038.14 516.428C1034.98 519.595 1027.44 524.028 1022.64 516.428C1019.64 520.095 1011.74 525.228 1004.14 516.428" stroke="black"/>
<path d="M852.714 516.428C849.881 520.428 842.314 526.028 834.714 516.428C831.547 519.595 824.014 524.028 819.214 516.428C816.214 520.095 808.314 525.228 800.714 516.428" stroke="black"/>
<path d="M768.143 516.428C765.309 520.428 757.743 526.028 750.143 516.428C746.976 519.595 739.443 524.028 734.643 516.428C731.643 520.095 723.743 525.228 716.143 516.428" stroke="black"/>
<path d="M569 516.428C566.167 520.428 558.6 526.028 551 516.428C547.833 519.595 540.3 524.028 535.5 516.428C532.5 520.095 524.6 525.228 517 516.428" stroke="black"/>
</svg>
