<svg width="1485" height="445" viewBox="0 0 1485 445" fill="none" xmlns="http://www.w3.org/2000/svg">
<path d="M1485 444.161H0" stroke="black"/>
<path fill-rule="evenodd" clip-rule="evenodd" d="M1012.73 60.6679L1012.92 60.6751C1014.8 60.8208 1015.7 63.0985 1014.43 64.4892L1014.29 64.6253L1011.67 67.0755C1010.79 67.8971 1009.43 67.897 1008.55 67.0755L1005.92 64.6253C1004.46 63.2528 1005.35 60.8257 1007.29 60.6751L1007.49 60.6679H1012.73ZM1007.49 61.4781C1006.15 61.4782 1005.5 63.1187 1006.48 64.0335L1009.1 66.4837C1009.67 67.0142 1010.55 67.0141 1011.12 66.4837L1013.74 64.0335C1014.72 63.1186 1014.07 61.4783 1012.73 61.4781H1007.49Z" fill="black"/>
<path fill-rule="evenodd" clip-rule="evenodd" d="M989.316 40.9246C992.77 40.845 995.766 41.9175 998.295 43.6224C1003.34 47.0209 1006.54 52.9369 1007.96 57.3348L1008.1 57.7905L1007.63 57.8601C1001.14 58.8132 994.777 56.9669 989.484 54.2991C984.19 51.6308 979.927 48.1227 977.612 45.6937L977.278 45.3424L977.682 45.0758C981.985 42.2333 985.863 41.0041 989.316 40.9246ZM989.335 41.7347C986.174 41.8075 982.578 42.8976 978.54 45.4832C980.863 47.8311 984.895 51.0789 989.849 53.576C994.922 56.1331 1000.93 57.8856 1007.03 57.122C1005.58 52.88 1002.51 47.4386 997.843 44.2941C995.433 42.6699 992.6 41.6595 989.335 41.7347Z" fill="black"/>
<path fill-rule="evenodd" clip-rule="evenodd" d="M1033.61 40.9246C1037.07 41.0041 1040.94 42.2333 1045.25 45.0758L1045.65 45.3424L1045.32 45.6937C1043 48.1227 1038.74 51.6308 1033.44 54.2991C1028.15 56.9669 1021.79 58.8132 1015.3 57.8601L1014.83 57.7905L1014.97 57.3348C1016.39 52.9369 1019.59 47.0209 1024.63 43.6224C1027.16 41.9175 1030.16 40.845 1033.61 40.9246ZM1033.59 41.7347C1030.33 41.6595 1027.5 42.6699 1025.09 44.2941C1020.42 47.4386 1017.35 52.88 1015.9 57.122C1022 57.8856 1028.01 56.1331 1033.08 53.576C1038.03 51.0789 1042.07 47.8311 1044.39 45.4832C1040.35 42.8976 1036.76 41.8075 1033.59 41.7347Z" fill="black"/>
<path fill-rule="evenodd" clip-rule="evenodd" d="M1028.92 58.1899C1062.43 47.8741 1101.23 48.5721 1130.64 68.5287C1132.15 69.5595 1133.59 70.6093 1135.03 71.7276C1135.21 71.8654 1135.24 72.1204 1135.11 72.2997C1134.97 72.4791 1134.72 72.5163 1134.54 72.3843C1133.07 71.3242 1131.61 70.3333 1130.09 69.3638C1100.59 50.7368 1062.88 51.3455 1030.9 62.1971C1057.6 56.6699 1088.71 58.6241 1109.12 78.1366L1109.96 78.9507C1110.7 79.6727 1111.4 80.4035 1112.11 81.1671C1112.26 81.3325 1112.25 81.5895 1112.08 81.7442C1111.92 81.899 1111.66 81.8945 1111.51 81.7354C1110.51 80.7391 1109.51 79.8073 1108.45 78.8771L1108.45 78.8763C1087.57 60.5726 1057.45 60.0641 1031.74 66.5C1031.63 66.5266 1031.65 66.6817 1031.76 66.683H1031.77C1064.44 67.448 1098.65 80.7557 1116.86 108.491L1116.86 108.492L1116.86 108.493C1117.79 109.909 1118.66 111.312 1119.5 112.779C1119.61 112.974 1119.54 113.222 1119.35 113.336C1119.16 113.451 1118.91 113.389 1118.79 113.198C1117.91 111.777 1117 110.423 1116.03 109.058L1116.03 109.057L1116.03 109.056C1097.12 82.3735 1063.29 70.7585 1031.79 71.1135C1030.07 71.1561 1028.26 71.2533 1026.57 71.4101C1026.34 71.431 1026.14 71.2619 1026.13 71.0359C1026.08 70.4026 1026.03 69.769 1025.99 69.1356C1025.96 68.7982 1025.94 68.4609 1025.91 68.1235L1025.91 68.1225L1025.91 68.1218C1025.53 66.7623 1025.07 65.4543 1024.57 64.2454C1024.32 63.659 1024.08 63.0724 1023.83 62.4859C1023.59 61.8993 1023.35 61.3121 1023.1 60.7255C1023.02 60.5169 1023.12 60.2772 1023.33 60.1939C1025.13 59.4767 1027.07 58.7897 1028.91 58.1922L1028.92 58.1899ZM1031.75 67.4923L1031.75 67.4931C1030.54 67.4796 1029.29 67.4919 1028.05 67.5319C1027.94 67.5355 1027.83 67.5528 1027.73 67.583C1027.13 67.7561 1026.74 68.3266 1026.79 68.9482C1026.79 68.9906 1026.79 69.033 1026.79 69.0754C1026.86 69.8956 1027.57 70.507 1028.4 70.4538C1029.52 70.3807 1030.66 70.3315 1031.77 70.3041H1031.78C1057.74 70.0105 1085.36 77.8036 1105 95.4843C1086 77.1312 1058.4 68.1174 1031.75 67.4923ZM1096.64 69.8935C1077.03 58.7925 1051.88 58.4685 1029.8 63.2588C1028.9 63.4539 1028 63.6614 1027.11 63.8771C1026.31 64.0692 1025.84 64.884 1026.06 65.6711C1026.25 66.3265 1026.86 66.7654 1027.54 66.7392C1027.55 66.7388 1027.56 66.7384 1027.58 66.7379C1027.7 66.7333 1027.82 66.7143 1027.93 66.6811C1028.77 66.4432 1029.61 66.212 1030.45 65.9924L1030.45 65.9913C1051.85 60.4484 1076.59 59.5942 1096.64 69.8935ZM1113.62 60.3244C1087.35 49.5181 1056.52 50.542 1029.16 58.962C1027.93 59.362 1026.65 59.8027 1025.4 60.2651C1024.64 60.5498 1024.27 61.4178 1024.58 62.1741C1024.75 62.5752 1024.92 62.9768 1025.08 63.378C1025.12 63.4653 1025.21 63.5135 1025.31 63.4903C1025.32 63.4879 1025.32 63.4848 1025.33 63.481C1026.87 62.8257 1028.5 62.1903 1030.07 61.6227L1030.08 61.6203C1056.52 52.5322 1087 50.3816 1113.62 60.3244Z" fill="black"/>
<path fill-rule="evenodd" clip-rule="evenodd" d="M995.845 58.1899C962.333 47.8741 923.527 48.5721 894.125 68.5287C892.613 69.5595 891.17 70.6093 889.729 71.7276C889.551 71.8654 889.518 72.1204 889.654 72.2997C889.789 72.4791 890.044 72.5163 890.226 72.3843C891.688 71.3242 893.148 70.3333 894.674 69.3638C924.168 50.7368 961.877 51.3455 993.865 62.1971C967.159 56.6699 936.055 58.6241 915.64 78.1366L914.798 78.9507C914.065 79.6727 913.359 80.4035 912.656 81.1671C912.504 81.3325 912.514 81.5895 912.677 81.7442C912.84 81.899 913.097 81.8945 913.256 81.7354C914.252 80.7391 915.249 79.8073 916.313 78.8771L916.314 78.8763C937.192 60.5726 967.31 60.0641 993.022 66.5C993.129 66.5266 993.108 66.6817 992.998 66.683H992.993C960.319 67.448 926.115 80.7557 907.905 108.491L907.905 108.492L907.904 108.493C906.969 109.909 906.105 111.312 905.262 112.779C905.15 112.974 905.217 113.222 905.41 113.336C905.604 113.451 905.853 113.389 905.972 113.198C906.855 111.777 907.758 110.423 908.729 109.058L908.73 109.057L908.731 109.056C927.644 82.3735 961.475 70.7585 992.969 71.1135C994.696 71.1561 996.505 71.2533 998.193 71.4101C998.419 71.431 998.618 71.2619 998.634 71.0359C998.681 70.4026 998.728 69.769 998.774 69.1356C998.799 68.7982 998.825 68.4609 998.85 68.1235L998.851 68.1225L998.852 68.1218C999.233 66.7623 999.692 65.4543 1000.19 64.2454C1000.44 63.659 1000.68 63.0724 1000.93 62.4859C1001.17 61.8993 1001.42 61.3121 1001.66 60.7255C1001.75 60.5169 1001.64 60.2772 1001.43 60.1939C999.628 59.4767 997.695 58.7897 995.85 58.1922L995.845 58.1899ZM993.007 67.4923L993.007 67.4931C994.218 67.4796 995.473 67.4919 996.711 67.5319C996.82 67.5355 996.929 67.5528 997.033 67.583C997.632 67.7561 998.022 68.3266 997.976 68.9482C997.973 68.9906 997.97 69.033 997.967 69.0754C997.906 69.8956 997.187 70.507 996.366 70.4538C995.241 70.3807 994.098 70.3315 992.989 70.3041H992.982C967.022 70.0105 939.401 77.8036 919.758 95.4843C938.763 77.1312 966.357 68.1174 993.007 67.4923ZM928.122 69.8935C947.736 58.7925 972.886 58.4685 994.965 63.2588C995.86 63.4539 996.761 63.6614 997.654 63.8771C998.448 64.0692 998.918 64.884 998.698 65.6711C998.514 66.3265 997.9 66.7654 997.22 66.7392C997.209 66.7388 997.198 66.7384 997.186 66.7379C997.065 66.7333 996.945 66.7143 996.828 66.6811C995.993 66.4432 995.149 66.212 994.31 65.9924L994.309 65.9913C972.916 60.4484 948.176 59.5942 928.122 69.8935ZM911.14 60.3244C937.415 49.5181 968.244 50.542 995.601 58.962C996.836 59.362 998.11 59.8027 999.357 60.2651C1000.13 60.5498 1000.49 61.4178 1000.18 62.1741C1000.01 62.5752 999.845 62.9768 999.679 63.378C999.642 63.4653 999.547 63.5135 999.456 63.4903C999.446 63.4879 999.437 63.4848 999.428 63.481C997.892 62.8257 996.261 62.1903 994.69 61.6227L994.684 61.6203C968.24 52.5322 937.762 50.3816 911.14 60.3244Z" fill="black"/>
<path d="M776.143 66.2139C774.783 58.0524 776.143 50.1069 781.286 43.9282" stroke="black" stroke-linecap="round"/>
<path d="M736.714 164.5C727.552 165.645 719.86 169.339 714.429 177.071" stroke="black" stroke-linecap="round"/>
<path d="M842.429 195.928C852.75 195.928 859.572 206.107 859.572 214.214" stroke="black" stroke-linecap="round"/>
<path d="M912.143 167.357C919.75 171.607 926.5 170.857 930.428 165.643" stroke="black" stroke-linecap="round"/>
<path d="M745.857 211.357C745.857 218.357 742.25 223.857 735.571 226.214" stroke="black" stroke-linecap="round"/>
<path d="M674.429 238.214C670 246.607 659.092 251.975 649.286 253.071" stroke="black" stroke-linecap="round"/>
<path d="M520.714 145.643C514 149.857 505.105 149.462 499 143.357" stroke="black" stroke-linecap="round"/>
<path d="M669.286 2.78564C672.278 2.78564 675.124 1.59029 677.857 0.5" stroke="black" stroke-linecap="round"/>
<path d="M557.857 98.2139C552.836 96.9585 550.748 95.8205 547.571 91.9282" stroke="black" stroke-linecap="round"/>
<path d="M590.429 335.357C585.125 338.107 576.875 338.982 572.715 334.214" stroke="black" stroke-linecap="round"/>
<path d="M573.857 361.071C579.25 362.232 580.375 364.232 581.857 368.5" stroke="black" stroke-linecap="round"/>
<path d="M696.143 331.928C691.875 334.732 687.375 334.982 681.857 333.643" stroke="black" stroke-linecap="round"/>
<path d="M872.143 322.214C872.802 326.828 873.293 330.974 876.143 334.786" stroke="black" stroke-linecap="round"/>
<path d="M996.715 358.214C1000.89 358.214 1005.21 359.149 1009.29 359.929" stroke="black" stroke-linecap="round"/>
<path d="M1005.86 379.357C1005.86 388.357 999.101 401.024 990.429 404.5" stroke="black" stroke-linecap="round"/>
<path d="M987 140.5C995.5 144.107 1003.25 142.357 1007 137.071" stroke="black" stroke-linecap="round"/>
<path d="M792.144 103.928C786.75 105.857 779.624 102.943 776.715 95.3569" stroke="black" stroke-linecap="round"/>
<path d="M693.286 96.5C693.286 104.357 690.5 112.857 684.826 116.477" stroke="black" stroke-linecap="round"/>
<path d="M826.429 251.928C834.25 263.357 846.25 269.857 857.286 268.5" stroke="black" stroke-linecap="round"/>
<path d="M897.857 261.643C899.75 270.357 896.5 276.357 887 278.785" stroke="black" stroke-linecap="round"/>
<path d="M1056.14 434.056C1053.31 438.056 1045.74 443.656 1038.14 434.056C1034.98 437.223 1027.44 441.656 1022.64 434.056C1019.64 437.723 1011.74 442.856 1004.14 434.056" stroke="black"/>
<path d="M852.714 434.056C849.881 438.056 842.314 443.656 834.714 434.056C831.547 437.223 824.014 441.656 819.214 434.056C816.214 437.723 808.314 442.856 800.714 434.056" stroke="black"/>
<path d="M768.143 434.056C765.309 438.056 757.743 443.656 750.143 434.056C746.976 437.223 739.443 441.656 734.643 434.056C731.643 437.723 723.743 442.856 716.143 434.056" stroke="black"/>
<path d="M569 434.056C566.167 438.056 558.6 443.656 551 434.056C547.833 437.223 540.3 441.656 535.5 434.056C532.5 437.723 524.6 442.856 517 434.056" stroke="black"/>
</svg>
